<?xml version="1.0" encoding="utf-8"?>
<!-- Generator: Adobe Illustrator 20.0.0, SVG Export Plug-In . SVG Version: 6.00 Build 0)  -->
<!DOCTYPE svg PUBLIC "-//W3C//DTD SVG 1.1//EN" "http://www.w3.org/Graphics/SVG/1.1/DTD/svg11.dtd">
<svg version="1.1" id="Layer_1" xmlns="http://www.w3.org/2000/svg" xmlns:xlink="http://www.w3.org/1999/xlink" x="0px" y="0px"
	 viewBox="0 0 500 406.1" enable-background="new 0 0 500 406.1" xml:space="preserve">
<g>
	<path d="M500,48.2c-14.2,20.7-31.3,38.4-51.4,53c0.2,3,0.3,7.4,0.3,13.3c0,27.5-4,54.9-12.1,82.3c-8.1,27.4-20.3,53.7-36.6,78.8
		c-16.4,25.2-35.9,47.4-58.5,66.8c-22.6,19.4-49.9,34.8-81.9,46.3c-31.9,11.5-66.1,17.3-102.5,17.3c-57.3,0-109.8-15.3-157.4-46
		c7.4,0.9,15.7,1.3,24.8,1.3c47.6,0,90-14.6,127.2-43.8c-22.2-0.4-42.1-7.2-59.7-20.5c-17.6-13.2-29.6-30.1-36.2-50.6
		c7,1.1,13.4,1.6,19.3,1.6c9.1,0,18.1-1.2,27-3.5c-23.7-4.9-43.3-16.7-58.9-35.4S20.3,168.8,20.3,144v-1.3
		c14.4,8.1,29.8,12.4,46.3,13c-13.9-9.3-25.1-21.4-33.3-36.5C25.1,104.3,21,88,21,70.4c0-18.6,4.6-35.8,13.9-51.7
		c25.6,31.5,56.7,56.7,93.4,75.7c36.7,18.9,76,29.4,117.9,31.6c-1.7-8-2.5-15.8-2.5-23.5c0-28.3,10-52.5,30-72.5s44.1-30,72.5-30
		c29.6,0,54.6,10.8,74.9,32.4c23.1-4.4,44.7-12.7,65.1-24.8c-7.8,24.3-22.9,43.1-45.1,56.5C460.7,62,480.3,56.7,500,48.2z"/>
</g>
</svg>
